<svg width="32" height="32" viewBox="0 0 32 32" fill="none" xmlns="http://www.w3.org/2000/svg">
<g clip-path="url(#clip0_605_24387)">
<path d="M27.0098 12L25.5998 13.41L28.1798 16L25.5898 18.59L27.0098 20L31.0098 16L27.0098 12Z" fill="#BEBEC8"/>
<path d="M6.41 13.42L5 12L1 16L5 20L6.42 18.59L3.83 16L6.41 13.42Z" fill="#BEBEC8"/>
<path d="M16 28.1701L13.41 25.5801L12 27.0001L16 31.0001L20 27.0001L18.59 25.5901L16 28.1701Z" fill="#BEBEC8"/>
<path d="M16 3.83L18.58 6.41L20 5L16 1L12 5L13.41 6.42L16 3.83Z" fill="#BEBEC8"/>
<path d="M22 16.0009C22.0011 14.656 21.5503 13.3497 20.7199 12.2917C19.8895 11.2337 18.7278 10.4854 17.4211 10.1668C16.1145 9.84828 14.7387 9.97797 13.5146 10.5351C12.2905 11.0922 11.289 12.0444 10.671 13.239C10.053 14.4335 9.85421 15.801 10.1066 17.122C10.359 18.4431 11.0479 19.641 12.0628 20.5236C13.0776 21.4061 14.3595 21.9221 15.7028 21.9887C17.0461 22.0553 18.3728 21.6687 19.47 20.8909L23.29 24.7109L24.71 23.2909L20.89 19.4709C21.6107 18.4572 21.9986 17.2447 22 16.0009ZM16 20.0009C15.2089 20.0009 14.4355 19.7663 13.7777 19.3268C13.1199 18.8873 12.6072 18.2625 12.3045 17.5316C12.0017 16.8007 11.9225 15.9965 12.0769 15.2205C12.2312 14.4446 12.6122 13.7319 13.1716 13.1725C13.731 12.6131 14.4437 12.2321 15.2196 12.0778C15.9956 11.9234 16.7998 12.0026 17.5307 12.3054C18.2616 12.6081 18.8864 13.1208 19.3259 13.7786C19.7654 14.4364 20 15.2098 20 16.0009C20 17.0618 19.5786 18.0792 18.8284 18.8293C18.0783 19.5795 17.0609 20.0009 16 20.0009Z" fill="#BEBEC8"/>
</g>
<defs>
<clipPath id="clip0_605_24387">
<rect width="32" height="32" fill="white"/>
</clipPath>
</defs>
</svg>
