<svg width="85" height="29" viewBox="0 0 85 29" fill="none" xmlns="http://www.w3.org/2000/svg">
<path d="M5 28.9998L0 23.9121L5 23.9121V28.9998Z" fill="#63982F"/>
<rect x="0.5" y="0.5" width="84" height="23" stroke="#76B439"/>
<path d="M19.056 16V8.72727H20.3735V11.8061H23.7435V8.72727H25.0645V16H23.7435V12.9105H20.3735V16H19.056ZM32.796 12.3636C32.796 13.1473 32.6492 13.8184 32.3556 14.3771C32.0645 14.9335 31.6667 15.3596 31.1625 15.6555C30.6606 15.9515 30.0912 16.0994 29.4544 16.0994C28.8175 16.0994 28.247 15.9515 27.7427 15.6555C27.2408 15.3572 26.8431 14.9299 26.5495 14.3736C26.2583 13.8149 26.1127 13.1449 26.1127 12.3636C26.1127 11.58 26.2583 10.91 26.5495 10.3537C26.8431 9.79498 27.2408 9.36766 27.7427 9.07173C28.247 8.7758 28.8175 8.62784 29.4544 8.62784C30.0912 8.62784 30.6606 8.7758 31.1625 9.07173C31.6667 9.36766 32.0645 9.79498 32.3556 10.3537C32.6492 10.91 32.796 11.58 32.796 12.3636ZM31.4714 12.3636C31.4714 11.812 31.385 11.3468 31.2122 10.968C31.0417 10.5869 30.805 10.2992 30.502 10.1051C30.1989 9.90862 29.8497 9.81037 29.4544 9.81037C29.059 9.81037 28.7098 9.90862 28.4068 10.1051C28.1038 10.2992 27.8658 10.5869 27.693 10.968C27.5226 11.3468 27.4373 11.812 27.4373 12.3636C27.4373 12.9152 27.5226 13.3816 27.693 13.7628C27.8658 14.1416 28.1038 14.4292 28.4068 14.6257C28.7098 14.8198 29.059 14.9169 29.4544 14.9169C29.8497 14.9169 30.1989 14.8198 30.502 14.6257C30.805 14.4292 31.0417 14.1416 31.2122 13.7628C31.385 13.3816 31.4714 12.9152 31.4714 12.3636ZM33.8415 16V8.72727H36.6256C37.1512 8.72727 37.588 8.81013 37.936 8.97585C38.2864 9.1392 38.548 9.36293 38.7208 9.64702C38.896 9.93111 38.9836 10.2531 38.9836 10.6129C38.9836 10.9089 38.9268 11.1622 38.8131 11.3729C38.6995 11.5812 38.5468 11.7505 38.355 11.8807C38.1633 12.0109 37.949 12.1044 37.7123 12.1612V12.2322C37.9703 12.2464 38.2177 12.3258 38.4545 12.4702C38.6936 12.6122 38.8889 12.8134 39.0404 13.0739C39.1919 13.3343 39.2677 13.6491 39.2677 14.0185C39.2677 14.3949 39.1765 14.7334 38.9942 15.0341C38.812 15.3324 38.5373 15.5679 38.1704 15.7408C37.8034 15.9136 37.3418 16 36.7854 16H33.8415ZM35.159 14.8991H36.5759C37.0541 14.8991 37.3986 14.808 37.6093 14.6257C37.8224 14.4411 37.9289 14.2043 37.9289 13.9155C37.9289 13.7 37.8756 13.5059 37.7691 13.3331C37.6626 13.1579 37.5111 13.0206 37.3146 12.9212C37.1181 12.8194 36.8837 12.7685 36.6114 12.7685H35.159V14.8991ZM35.159 11.8203H36.4623C36.6896 11.8203 36.8943 11.7789 37.0766 11.696C37.2589 11.6108 37.4022 11.4912 37.5063 11.3374C37.6129 11.1811 37.6661 10.9964 37.6661 10.7834C37.6661 10.5017 37.5667 10.2696 37.3678 10.0874C37.1713 9.90507 36.879 9.81392 36.4907 9.81392H35.159V11.8203ZM40.2138 8.72727H41.5206V13.6847H41.5881L45.0078 8.72727H46.1904V16H44.8729V11.0462H44.8125L41.3821 16H40.2138V8.72727ZM47.4259 16V8.72727H48.7434V11.8061H52.1134V8.72727H53.4344V16H52.1134V12.9105H48.7434V16H47.4259ZM59.0246 16L56.6311 12.8217H55.9848V16H54.6673V8.72727H55.9848V11.7173H56.3151L58.9003 8.72727H60.5232L57.6503 12.044L60.6474 16H59.0246ZM62.2763 16H60.87L63.4304 8.72727H65.0568L67.6207 16H66.2145L64.272 10.2188H64.2152L62.2763 16ZM62.3224 13.1484H66.1577V14.2067H62.3224V13.1484Z" fill="#76B439"/>
</svg>
