<svg width="47" height="29" viewBox="0 0 47 29" fill="none" xmlns="http://www.w3.org/2000/svg">
<path d="M5 28.9998L0 23.9121L5 23.9121V28.9998Z" fill="#AB9CC1"/>
<rect x="0.5" y="0.5" width="46" height="23" stroke="#BFAED7"/>
<path d="M13.4311 9.83168V8.72727H19.2337V9.83168H16.9858V16H15.679V9.83168H13.4311ZM26.3286 12.3636C26.3286 13.1473 26.1818 13.8184 25.8883 14.3771C25.5971 14.9335 25.1993 15.3596 24.6951 15.6555C24.1932 15.9515 23.6238 16.0994 22.987 16.0994C22.3501 16.0994 21.7796 15.9515 21.2753 15.6555C20.7734 15.3572 20.3757 14.9299 20.0822 14.3736C19.791 13.8149 19.6454 13.1449 19.6454 12.3636C19.6454 11.58 19.791 10.91 20.0822 10.3537C20.3757 9.79498 20.7734 9.36766 21.2753 9.07173C21.7796 8.7758 22.3501 8.62784 22.987 8.62784C23.6238 8.62784 24.1932 8.7758 24.6951 9.07173C25.1993 9.36766 25.5971 9.79498 25.8883 10.3537C26.1818 10.91 26.3286 11.58 26.3286 12.3636ZM25.004 12.3636C25.004 11.812 24.9176 11.3468 24.7448 10.968C24.5743 10.5869 24.3376 10.2992 24.0346 10.1051C23.7315 9.90862 23.3823 9.81037 22.987 9.81037C22.5916 9.81037 22.2424 9.90862 21.9394 10.1051C21.6364 10.2992 21.3984 10.5869 21.2256 10.968C21.0552 11.3468 20.9699 11.812 20.9699 12.3636C20.9699 12.9152 21.0552 13.3816 21.2256 13.7628C21.3984 14.1416 21.6364 14.4292 21.9394 14.6257C22.2424 14.8198 22.5916 14.9169 22.987 14.9169C23.3823 14.9169 23.7315 14.8198 24.0346 14.6257C24.3376 14.4292 24.5743 14.1416 24.7448 13.7628C24.9176 13.3816 25.004 12.9152 25.004 12.3636ZM33.3081 8.72727V16H32.0013V9.82102H28.8195V16H27.5127V8.72727H33.3081Z" fill="#BFAED7"/>
</svg>
