<svg width="66" height="29" viewBox="0 0 66 29" fill="none" xmlns="http://www.w3.org/2000/svg">
<path d="M5 28.9998L0 23.9121L5 23.9121V28.9998Z" fill="#C82020"/>
<rect x="0.5" y="0.5" width="65" height="23" stroke="#F03B3B"/>
<path d="M17.0898 16H15.6835L18.2439 8.72727H19.8703L22.4342 16H21.028L19.0855 10.2188H19.0287L17.0898 16ZM17.1359 13.1484H20.9711V14.2067H17.1359V13.1484ZM27.5494 16L25.1559 12.8217H24.5096V16H23.1921V8.72727H24.5096V11.7173H24.8399L27.4251 8.72727H29.048L26.1751 12.044L29.1722 16H27.5494ZM36.5965 14.8991L36.5007 17.7188H35.2222V16H34.7109V14.8991H36.5965ZM29.8671 16V8.72727H31.1313V14.9062H34.3984V8.72727H35.6732V16H29.8671ZM37.4699 8.72727H38.7767V13.6847H38.8442L42.2639 8.72727H43.4464V16H42.129V11.0462H42.0686L38.6382 16H37.4699V8.72727ZM50.0513 16H48.7303V9.82812H47.5229C47.1962 9.82812 46.9275 9.87666 46.7168 9.97372C46.5084 10.0684 46.3534 10.2081 46.2516 10.3928C46.1521 10.575 46.1024 10.7952 46.1024 11.0533C46.1024 11.3113 46.1521 11.5291 46.2516 11.7067C46.351 11.8819 46.5049 12.0156 46.7132 12.108C46.9239 12.1979 47.1914 12.2429 47.5158 12.2429H49.2843V13.3366H47.3382C46.7795 13.3366 46.3084 13.2443 45.9249 13.0597C45.5414 12.8726 45.2502 12.6087 45.0513 12.2678C44.8548 11.9245 44.7566 11.5196 44.7566 11.0533C44.7566 10.5893 44.8536 10.1832 45.0477 9.83523C45.2442 9.48485 45.5331 9.21259 45.9142 9.01847C46.2954 8.82434 46.7641 8.72727 47.3205 8.72727H50.0513V16ZM46.2906 12.7045H47.7289L45.9604 16H44.4902L46.2906 12.7045Z" fill="#F03B3B"/>
</svg>
