<svg width="24" height="17" viewBox="0 0 24 17" fill="none" xmlns="http://www.w3.org/2000/svg">
<path d="M23.5055 2.6288C23.229 1.60086 22.4183 0.790543 21.3903 0.513751C19.5122 0 11.9997 0 11.9997 0C11.9997 0 4.48756 0 2.60948 0.494273C1.60122 0.770773 0.770802 1.601 0.494239 2.6288C0 4.5063 0 8.4 0 8.4C0 8.4 0 12.3133 0.494239 14.1712C0.771095 15.199 1.58145 16.0093 2.60962 16.2861C4.50733 16.8 12 16.8 12 16.8C12 16.8 19.5122 16.8 21.3903 16.3057C22.4185 16.0291 23.229 15.2188 23.5058 14.191C23.9999 12.3133 23.9999 8.41977 23.9999 8.41977C23.9999 8.41977 24.0197 4.5063 23.5055 2.6288ZM9.60793 11.9971V4.80287L15.8549 8.4L9.60793 11.9971Z" fill="#EB001B"/>
</svg>
